<?xml version="1.0" encoding="utf-8"?>
<!-- Generator: Adobe Illustrator 15.0.0, SVG Export Plug-In . SVG Version: 6.00 Build 0)  -->
<!DOCTYPE svg PUBLIC "-//W3C//DTD SVG 1.1//EN" "http://www.w3.org/Graphics/SVG/1.1/DTD/svg11.dtd">
<svg version="1.1" id="图层_1" xmlns="http://www.w3.org/2000/svg" xmlns:xlink="http://www.w3.org/1999/xlink" x="0px" y="0px"
	 width="595.28px" height="841.89px" viewBox="0 0 595.28 841.89" enable-background="new 0 0 595.28 841.89" xml:space="preserve">
<path d="M46.571,56.585c-8.822,0-16-7.178-16-16c0-8.823,7.178-16,16-16s16,7.177,16,16C62.571,49.407,55.394,56.585,46.571,56.585
	 M60.065,42.775c-0.468-0.147-4.23-1.27-8.514-0.584c1.788,4.912,2.516,8.912,2.655,9.743
	C57.274,49.861,59.456,46.577,60.065,42.775 M51.909,53.187c-0.202-1.199-0.996-5.378-2.915-10.364c-0.03,0.01-0.06,0.02-0.091,0.03
	c-7.707,2.687-10.475,8.032-10.721,8.535c2.317,1.807,5.229,2.885,8.389,2.885C48.464,54.272,50.269,53.886,51.909,53.187
	 M36.418,49.743c0.31-0.53,4.062-6.74,11.108-9.018c0.179-0.058,0.358-0.112,0.539-0.163c-0.344-0.776-0.717-1.554-1.107-2.319
	c-6.826,2.042-13.448,1.957-14.046,1.945c-0.005,0.139-0.007,0.277-0.007,0.418C32.905,44.115,34.235,47.32,36.418,49.743
	 M33.192,37.807c0.612,0.009,6.244,0.033,12.636-1.665c-2.265-4.025-4.707-7.409-5.067-7.904
	C36.938,30.042,34.08,33.566,33.192,37.807 M43.369,27.319c0.378,0.506,2.86,3.886,5.099,8c4.86-1.821,6.917-4.586,7.163-4.936
	c-2.414-2.142-5.587-3.444-9.06-3.444C45.469,26.939,44.397,27.071,43.369,27.319 M57.149,31.963
	c-0.287,0.39-2.578,3.326-7.631,5.389c0.318,0.651,0.623,1.313,0.907,1.979c0.101,0.236,0.198,0.471,0.294,0.705
	c4.547-0.572,9.066,0.345,9.516,0.44C60.206,37.251,59.054,34.29,57.149,31.963"/>
<path d="M111.407,40.708c-6.167,1.993-9.449,7.427-9.72,7.891c-1.91-2.12-3.074-4.924-3.074-7.995c0-0.123,0.002-0.244,0.006-0.366
	c0.523,0.011,6.318,0.085,12.29-1.702c0.342,0.67,0.669,1.35,0.969,2.03C111.72,40.61,111.563,40.657,111.407,40.708
	 M118.499,31.658c-0.216,0.307-2.016,2.726-6.268,4.32c-1.96-3.6-4.132-6.558-4.462-7c0.899-0.217,1.837-0.333,2.802-0.333
	C113.609,28.645,116.386,29.785,118.499,31.658 M109.921,36.697c-5.594,1.486-10.521,1.464-11.056,1.457
	c0.776-3.711,3.276-6.794,6.622-8.373C105.802,30.214,107.939,33.175,109.921,36.697 M112.612,42.569
	c0.025-0.009,0.053-0.017,0.079-0.026c1.679,4.362,2.373,8.019,2.551,9.068c-1.437,0.612-3.014,0.951-4.671,0.951
	c-2.766,0-5.313-0.944-7.34-2.525C103.446,49.597,105.867,44.92,112.612,42.569 M121.196,24.585h-21.25
	c-2.956,0-5.375,2.419-5.375,5.375v21.25c0,2.956,2.419,5.375,5.375,5.375h21.25c2.956,0,5.375-2.419,5.375-5.375V29.96
	C126.571,27.004,124.152,24.585,121.196,24.585 M110.571,54.585c-7.72,0-14-6.28-14-14c0-7.72,6.28-14,14-14c7.721,0,14,6.28,14,14
	C124.571,48.305,118.292,54.585,110.571,54.585 M114.929,41.99c3.748-0.6,7.041,0.382,7.449,0.512
	c-0.533,3.327-2.442,6.2-5.125,8.014C117.13,49.789,116.493,46.288,114.929,41.99 M113.15,37.756
	c4.421-1.805,6.425-4.374,6.677-4.715c1.666,2.035,2.674,4.627,2.701,7.449c-0.395-0.083-4.348-0.885-8.327-0.384
	c-0.084-0.205-0.17-0.411-0.258-0.618C113.695,38.905,113.429,38.326,113.15,37.756"/>
<path d="M182.499,31.658c-0.215,0.307-2.016,2.726-6.268,4.32c-1.96-3.6-4.132-6.558-4.463-7.001c0.9-0.216,1.838-0.332,2.803-0.332
	C177.61,28.646,180.387,29.784,182.499,31.658 M175.407,40.707c-6.166,1.994-9.449,7.428-9.721,7.891
	c-1.908-2.119-3.072-4.923-3.072-7.995c0-0.122,0.002-0.244,0.004-0.365c0.524,0.01,6.319,0.085,12.291-1.702
	c0.342,0.67,0.668,1.35,0.969,2.029C175.72,40.61,175.563,40.657,175.407,40.707 M174.571,24.585c-8.836,0-16,7.163-16,16
	c0,8.836,7.164,16,16,16s16-7.164,16-16C190.571,31.748,183.407,24.585,174.571,24.585 M174.571,54.585c-7.72,0-14-6.281-14-14
	c0-7.72,6.28-14,14-14c7.719,0,14,6.28,14,14C188.571,48.304,182.29,54.585,174.571,54.585 M177.944,39.488
	c-0.248-0.583-0.516-1.163-0.793-1.732c4.42-1.805,6.424-4.374,6.676-4.715c1.666,2.035,2.674,4.627,2.701,7.449
	c-0.395-0.083-4.348-0.885-8.328-0.385C178.118,39.9,178.032,39.695,177.944,39.488 M173.921,36.697
	c-5.594,1.485-10.52,1.464-11.055,1.457c0.775-3.711,3.275-6.795,6.621-8.373C169.803,30.214,171.939,33.175,173.921,36.697
	 M176.612,42.569c0.026-0.009,0.053-0.017,0.08-0.026c1.678,4.362,2.372,8.019,2.551,9.068c-1.437,0.611-3.016,0.95-4.672,0.95
	c-2.765,0-5.313-0.943-7.34-2.524C167.446,49.597,169.868,44.92,176.612,42.569 M178.93,41.99c3.747-0.6,7.04,0.382,7.448,0.511
	c-0.533,3.327-2.442,6.201-5.125,8.015C181.13,49.788,180.493,46.288,178.93,41.99"/>
</svg>
